<svg xmlns="http://www.w3.org/2000/svg" width="220.2" height="56.962" viewBox="0 0 220.2 56.962">
  <g id="Group_166" data-name="Group 166" transform="translate(-405.8 318)">
    <g id="Group_165" data-name="Group 165" transform="translate(253.651 -473.789)">
      <g id="Logo_Symbol" data-name="Logo Symbol" transform="translate(152.149 155.789)">
        <g id="Group_62" data-name="Group 62">
          <g id="_" data-name=" " style="isolation: isolate">
            <g id="Group_163" data-name="Group 163" style="isolation: isolate">
              <path id="Path_266" data-name="Path 266" d="M167.573,196.3a2.6,2.6,0,0,1-1.078-.539L154.43,181.621q-.871-1-1.244-1.472a5.543,5.543,0,0,1-.7-1.265,4.322,4.322,0,0,1-.332-1.7v-2.032a4.256,4.256,0,0,1,.353-1.721,5.641,5.641,0,0,1,.663-1.2q.311-.394,1.306-1.514L166.5,156.2a1.5,1.5,0,0,1,1.037-.415,1.221,1.221,0,0,1,1.016.518,2.03,2.03,0,0,1,.394,1.265v2.322a5.268,5.268,0,0,1-.042.684q-.042.311-.083.539a1.942,1.942,0,0,1-.207.539,3.39,3.39,0,0,0-.207.436,1.984,1.984,0,0,1-.311.456q-.27.332-.311.373t-.415.456q-.373.415-.415.456l-9.288,11.61a.933.933,0,0,0,0,1.493l9.288,11.2q.124.124.415.435t.394.435q.1.124.332.394a3.266,3.266,0,0,1,.311.415q.083.146.228.415a1.74,1.74,0,0,1,.187.5c.027.152.055.332.083.539a5.268,5.268,0,0,1,.042.684v2.612a1.964,1.964,0,0,1-.394,1.223A1.184,1.184,0,0,1,167.573,196.3Z" transform="translate(-152.149 -155.789)" fill="#ef770e"/>
            </g>
          </g>
          <g id="_2" data-name=" 2" transform="translate(15.676 16.453)" style="isolation: isolate">
            <g id="Group_164" data-name="Group 164" style="isolation: isolate">
              <path id="Path_267" data-name="Path 267" d="M230.077,236.144a2.6,2.6,0,0,1,1.078.539l12.066,14.139q.871,1,1.244,1.472a5.544,5.544,0,0,1,.7,1.265,4.326,4.326,0,0,1,.332,1.7v2.032a4.256,4.256,0,0,1-.353,1.721,5.646,5.646,0,0,1-.663,1.2q-.311.393-1.306,1.513l-12.024,14.512a1.5,1.5,0,0,1-1.037.414,1.221,1.221,0,0,1-1.016-.518,2.031,2.031,0,0,1-.394-1.265v-2.322a5.27,5.27,0,0,1,.042-.684c.028-.207.056-.388.083-.539a1.952,1.952,0,0,1,.207-.539,3.393,3.393,0,0,0,.207-.435,2,2,0,0,1,.311-.456q.27-.332.311-.373t.415-.456q.373-.415.415-.456L239.987,257a.933.933,0,0,0,0-1.493L230.7,244.312q-.124-.124-.415-.435t-.394-.436q-.1-.124-.332-.394a3.25,3.25,0,0,1-.311-.415q-.083-.146-.228-.414a1.739,1.739,0,0,1-.187-.5q-.041-.228-.083-.539a5.269,5.269,0,0,1-.042-.684v-2.612a1.964,1.964,0,0,1,.394-1.223A1.183,1.183,0,0,1,230.077,236.144Z" transform="translate(-228.709 -236.144)" fill="#ef770e"/>
            </g>
          </g>
        </g>
      </g>
      <g id="Jonasmohr" transform="translate(199.349 162.653)" style="isolation: isolate">
        <text id="Jonasmohr-2" data-name="Jonasmohr" transform="translate(0 31)" fill="#eaeaea" font-size="34" font-family="ExpletusSans-Bold, Expletus Sans" font-weight="700" style="isolation: isolate"><tspan x="0" y="0">Jonasmohr</tspan></text>
      </g>
    </g>
  </g>
</svg>
