<svg xmlns="http://www.w3.org/2000/svg" width="200" height="225.001" viewBox="0 0 200 225.001">
  <g id="iconfinder_css3_294692" transform="translate(-91.809 -81.661)">
    <g id="形状_1_19_" transform="translate(91.809 81.661)">
      <g id="形状_1">
        <g id="Group_74" data-name="Group 74">
          <path id="Path_227" data-name="Path 227" d="M91.809,117.07l18.749,203.123,81.25,21.878,81.249-21.878L291.809,117.07Z" transform="translate(-91.809 -117.07)" fill="#1758a7" fill-rule="evenodd"/>
        </g>
      </g>
    </g>
    <g id="形状_1_18_" transform="translate(191.807 98.114)">
      <g id="形状_1_1_">
        <g id="Group_75" data-name="Group 75">
          <path id="Path_228" data-name="Path 228" d="M256,144.084v191.1l.183.049,65.752-17.7,15.176-173.444Z" transform="translate(-255.997 -144.084)" fill="#379ad6" fill-rule="evenodd"/>
        </g>
      </g>
    </g>
    <g id="形状_1_17_" transform="translate(137.519 210.419)">
      <g id="形状_1_2_">
        <g id="Group_76" data-name="Group 76">
          <path id="Path_229" data-name="Path 229" d="M220.921,355.312l-.044.013-27.145-6.919-1.645-19.927H166.861l3.29,38.47,51,15.222V355.247Z" transform="translate(-166.861 -328.479)" fill="#e8e8e7" fill-rule="evenodd"/>
        </g>
      </g>
    </g>
    <g id="形状_1_16_" transform="translate(191.81 172.843)">
      <g id="形状_1_3_">
        <g id="Group_77" data-name="Group 77">
          <path id="Path_230" data-name="Path 230" d="M256,266.782v24.44h.072l30.149.033L284.288,323.2l-28.214,7.949-.072.021v26.851l.072.022.02.006,51.136-14.936,6.634-76.333Z" transform="translate(-256.001 -266.782)" fill="#fbfbfa" fill-rule="evenodd"/>
        </g>
      </g>
    </g>
    <g id="形状_1_15_" transform="translate(133.951 172.843)">
      <g id="形状_1_4_" transform="translate(0)">
        <g id="Group_78" data-name="Group 78">
          <path id="Path_231" data-name="Path 231" d="M161,266.782l1.92,24.415,0,.038,55.936,0V266.782Z" transform="translate(-161.002 -266.782)" fill="#e5e4e2" fill-rule="evenodd"/>
        </g>
      </g>
    </g>
    <g id="形状_1_14_" transform="translate(133.954 148.38)">
      <g id="形状_1_5_">
        <g id="Group_79" data-name="Group 79">
          <path id="Path_232" data-name="Path 232" d="M161.008,251.079h57.713l.142-.062v-24.4Z" transform="translate(-161.008 -226.617)" fill="#eee" fill-rule="evenodd"/>
        </g>
      </g>
    </g>
    <g id="形状_1_13_" transform="translate(191.81 147.193)">
      <g id="形状_1_6_">
        <g id="Group_80" data-name="Group 80">
          <path id="Path_233" data-name="Path 233" d="M259.382,224.667,256,226.083v24.228l59.659-25.645Z" transform="translate(-256.001 -224.667)" fill="#fff" fill-rule="evenodd"/>
        </g>
      </g>
    </g>
    <g id="形状_1_12_" transform="translate(128.588 122.738)">
      <g id="形状_1_7_">
        <g id="Group_81" data-name="Group 81">
          <path id="Path_234" data-name="Path 234" d="M152.2,184.515l3.023,24.454h60.2V184.515Z" transform="translate(-152.196 -184.515)" fill="#e7e7e6" fill-rule="evenodd"/>
        </g>
      </g>
    </g>
    <g id="形状_1_11_" transform="translate(191.81 122.738)">
      <g id="形状_1_8_">
        <g id="Group_82" data-name="Group 82">
          <path id="Path_235" data-name="Path 235" d="M256,208.969l62.027-24.454H256Zm.016,0h59.54l2.47-24.454Z" transform="translate(-256.001 -184.515)" fill="#f8f8f7" fill-rule="evenodd"/>
        </g>
      </g>
    </g>
  </g>
</svg>
