<svg xmlns="http://www.w3.org/2000/svg" width="200" height="224.722" viewBox="0 0 200 224.722">
  <g id="graphql" transform="translate(-25.74 -4.2)">
    <path id="Path_239" data-name="Path 239" d="M51.342,180.919l-8.25-4.763,91.9-159.176,8.25,4.763Z" transform="translate(-7.394 -5.446)" fill="#e10098"/>
    <path id="Path_240" data-name="Path 240" d="M39.8,272.2H223.606v9.526H39.8Z" transform="translate(-5.992 -114.207)" fill="#e10098"/>
    <path id="Path_241" data-name="Path 241" d="M138.075,225.747,46.138,172.665l4.763-8.25L142.838,217.5ZM217.941,87.4,126,34.321l4.763-8.25L222.7,79.153Z" transform="translate(-8.693 -9.32)" fill="#e10098"/>
    <path id="Path_242" data-name="Path 242" d="M50.945,87.339,46.182,79.09l91.937-53.082,4.763,8.25Z" transform="translate(-8.711 -9.293)" fill="#e10098"/>
    <path id="Path_243" data-name="Path 243" d="M218.957,180.922l-91.9-159.176,8.25-4.763,91.9,159.176ZM52.5,68.927h9.526V175.09H52.5Zm159.761,0h9.526V175.09h-9.526Z" transform="translate(-11.404 -5.447)" fill="#e10098"/>
    <path id="Path_244" data-name="Path 244" d="M200.432,327.365l-4.16-7.206,79.961-46.167,4.16,7.206Z" transform="translate(-72.671 -114.971)" fill="#e10098"/>
    <path id="Path_245" data-name="Path 245" d="M223.008,172.741a20.04,20.04,0,1,1-7.345-27.373,20.058,20.058,0,0,1,7.345,27.373M63.132,80.408a20.04,20.04,0,1,1-7.345-27.373,20.058,20.058,0,0,1,7.345,27.373M28.472,172.741a20.04,20.04,0,1,1,27.373,7.345,20.072,20.072,0,0,1-27.373-7.345M188.348,80.408a20.04,20.04,0,1,1,27.373,7.345,20.072,20.072,0,0,1-27.373-7.345M125.74,228.922a20.028,20.028,0,1,1,20.028-20.028,20.009,20.009,0,0,1-20.028,20.028m0-184.667a20.028,20.028,0,1,1,20.028-20.028A20.009,20.009,0,0,1,125.74,44.255" transform="translate(0)" fill="#e10098"/>
  </g>
</svg>
