<svg xmlns="http://www.w3.org/2000/svg" width="200" height="226.821" viewBox="0 0 200 226.821">
  <g id="iconfinder_html5_294678" transform="translate(-93.063 -81.992)">
    <g id="形状_1_9_" transform="translate(93.063 81.992)">
      <g id="形状_1" transform="translate(0 0)">
        <g id="Group_69" data-name="Group 69">
          <path id="Path_222" data-name="Path 222" d="M93.063,116.909l18.2,204.148L192.94,343.73l81.9-22.706,18.221-204.115Z" transform="translate(-93.063 -116.909)" fill="#e44d26" fill-rule="evenodd"/>
        </g>
      </g>
    </g>
    <g id="形状_1_8_" transform="translate(130.279 123.722)">
      <g id="形状_1_1_">
        <g id="Group_70" data-name="Group 70">
          <path id="Path_223" data-name="Path 223" d="M216.486,184.9H153.7l.6,6.717,6.154,69h56.03V235.58H183.354l-2.289-25.639h35.42Zm-27.995,108.2-1.783-19.968H161.574l3.508,39.313,51.288,14.237.115-.032v-26.05l-.11.029Z" transform="translate(-153.702 -184.903)" fill="#ebebeb" fill-rule="evenodd"/>
        </g>
      </g>
    </g>
    <g id="形状_1_7_" transform="translate(193.063 98.684)">
      <g id="形状_1_2_" transform="translate(0 0)">
        <g id="Group_71" data-name="Group 71">
          <path id="Path_224" data-name="Path 224" d="M256,144.106V336.881l66.18-18.348,15.571-174.427Z" transform="translate(-256 -144.106)" fill="#f16529" fill-rule="evenodd"/>
        </g>
      </g>
    </g>
    <g id="形状_1_6_" transform="translate(192.976 123.722)">
      <g id="形状_1_3_" transform="translate(0 0)">
        <g id="Group_72" data-name="Group 72">
          <path id="Path_225" data-name="Path 225" d="M255.858,260.618h30.831l-2.907,32.473-27.925,7.537v26.048l51.329-14.226.377-4.23,5.884-65.917.611-6.723h-58.2Zm0-75.715v25.038h60.478l.5-5.628,1.141-12.693.6-6.717h-62.72Z" transform="translate(-255.858 -184.903)" fill="#fff" fill-rule="evenodd"/>
        </g>
      </g>
    </g>
  </g>
</svg>
