<svg xmlns="http://www.w3.org/2000/svg" width="200" height="225.582" viewBox="0 0 200 225.582">
  <g id="_x32_33-node-js" transform="translate(-52.084 -26.001)">
    <g id="Group_84" data-name="Group 84" transform="translate(52.084 26.001)">
      <path id="Path_237" data-name="Path 237" d="M152.039,251.583a17.529,17.529,0,0,1-8.684-2.327l-27.619-16.338c-4.118-2.328-2.1-3.133-.761-3.581a54.383,54.383,0,0,0,12.488-5.685,2.019,2.019,0,0,1,2.059.179l21.218,12.578a2.593,2.593,0,0,0,2.551,0l82.677-47.718a2.648,2.648,0,0,0,1.253-2.238V91.019a2.664,2.664,0,0,0-1.3-2.282L153.292,41.064a2.59,2.59,0,0,0-2.551,0L68.153,88.781a2.611,2.611,0,0,0-1.3,2.283v95.39a2.471,2.471,0,0,0,1.3,2.194L90.8,201.717c12.31,6.132,19.83-1.074,19.83-8.37V99.165a2.369,2.369,0,0,1,2.418-2.372h10.474a2.4,2.4,0,0,1,2.417,2.372v94.226c0,16.383-8.953,25.783-24.485,25.783-4.79,0-8.55,0-19.024-5.192L60.768,201.493a17.406,17.406,0,0,1-8.684-15.085V91.019a17.459,17.459,0,0,1,8.684-15.085l82.587-47.718a18.126,18.126,0,0,1,17.368,0L243.4,75.978a17.406,17.406,0,0,1,8.683,15.085v95.39a17.516,17.516,0,0,1-8.683,15.085l-82.678,47.717A17.409,17.409,0,0,1,152.039,251.583Zm66.742-94.046c0-17.861-12.086-22.605-37.466-25.962-25.695-3.4-28.29-5.148-28.29-11.146,0-4.968,2.194-11.593,21.217-11.593,16.966,0,23.233,3.671,25.828,15.13a2.4,2.4,0,0,0,2.327,1.88h10.745a2.337,2.337,0,0,0,1.745-.761,2.482,2.482,0,0,0,.625-1.836c-1.655-19.739-14.771-28.916-41.271-28.916-23.59,0-37.645,9.937-37.645,26.634,0,18.084,14.01,23.1,36.615,25.335,27.082,2.642,29.185,6.626,29.185,11.952,0,9.222-7.43,13.16-24.843,13.16-21.889,0-26.679-5.506-28.29-16.382a2.369,2.369,0,0,0-2.372-2.014h-10.7a2.359,2.359,0,0,0-2.372,2.372c0,13.922,7.565,30.529,43.778,30.529,26.141-.045,41.181-10.387,41.181-28.381Z" transform="translate(-52.084 -26.001)" fill="#539e43"/>
    </g>
  </g>
</svg>
