<svg xmlns="http://www.w3.org/2000/svg" width="120.027" height="247.824" viewBox="0 0 120.027 247.824">
  <g id="mongodb-leaf" transform="translate(-73.203 -6.454)">
    <path id="mongodb-leaf-stem" d="M134.7,253.152l-7.183-2.254s.877-33.633-12.264-36.046c-8.76-9.334,1.4-395.873,32.938-1.287,0,0-10.862,4.988-12.79,13.518-2.1,8.368-.7,26.07-.7,26.07Z" transform="translate(4.44 1.125)" fill="#a6a385"/>
    <path id="mongodb-leaf-right" d="M134.317,225.892s70.211-36.251,49.664-121.137c-14.191-57.449-47.657-76.277-51.335-83.519-4.029-5.149-7.885-14.161-7.885-14.161l2.629,159.8c0,.162-7.055,52.959,6.787,58.914" transform="translate(5.484 0.023)" fill="#499d4a"/>
    <path id="mongodb-leaf-left" d="M128.894,223.862S69.848,186.849,73.353,121.676c3.328-65.175,45.028-97.2,53.087-102.992,5.257-5.149,5.433-7.081,5.783-12.23,3.679,7.242,2.979,108.3,3.5,120.21,1.577,45.863-2.8,88.509-6.833,97.2Z" transform="translate(0 0)" fill="#58aa50"/>
  </g>
</svg>
