<svg xmlns="http://www.w3.org/2000/svg" width="200" height="136.881" viewBox="0 0 200 136.881">
  <g id="_x31_94-laravel" transform="translate(-26 -98.586)">
    <g id="Group_86" data-name="Group 86" transform="translate(26 98.587)">
      <g id="Group_85" data-name="Group 85">
        <path id="Path_238" data-name="Path 238" d="M225.223,162.514c-1.312-1.5-19.623-24.4-22.841-28.277s-4.811-3.188-6.78-2.907c-2,.281-25.154,4.187-27.84,4.625-2.688.469-4.375,1.531-2.719,3.843,1.468,2.062,16.685,23.654,20.06,28.4l-60.525,14.5L76.4,102.24c-1.907-2.843-2.312-3.843-6.687-3.624-4.374.187-37.777,2.968-40.152,3.187-2.374.187-5,1.25-2.624,6.874s40.307,87.365,41.37,89.739,3.812,6.25,10.248,4.687c6.593-1.593,29.465-7.562,41.964-10.843,6.593,11.967,20.061,36.214,22.56,39.683,3.313,4.656,5.625,3.875,10.718,2.313,4-1.219,62.367-22.217,64.992-23.279,2.624-1.094,4.249-1.844,2.468-4.5-1.312-1.937-16.716-22.56-24.777-33.371,5.531-1.468,25.184-6.687,27.277-7.28,2.469-.624,2.813-1.812,1.469-3.311Zm-110.048,22.5c-.719.156-34.621,8.28-36.434,8.687s-1.813.219-2.031-.406S36.4,109.958,35.84,108.927s-.531-1.844,0-1.844,32.028-2.812,33.121-2.875c1.125-.062,1,.188,1.406.875,0,0,44.431,76.678,45.182,78.023C116.361,184.449,115.893,184.855,115.175,185.011Zm95.613,17.936c.531.843,1.093,1.4-.625,2-1.688.625-57.4,19.4-58.462,19.872-1.094.469-1.937.625-3.312-1.405s-19.5-33.371-19.5-33.371L187.884,174.7c1.469-.469,1.937-.782,2.874.687C191.665,176.887,210.256,202.1,210.788,202.947Zm3.781-41.9c-1.313.281-23,5.655-23,5.655l-17.717-24.31c-.5-.718-.906-1.406.344-1.563s21.372-3.811,22.279-4c.9-.219,1.686-.469,2.812,1.062s16.436,20.935,17.029,21.685c.563.719-.437,1.156-1.749,1.469Z" transform="translate(-26 -98.587)" fill="#f35045"/>
      </g>
    </g>
  </g>
</svg>
