<svg xmlns="http://www.w3.org/2000/svg" width="200" height="177.959" viewBox="0 0 200 177.959">
  <g id="iconfinder_React.js_logo_1174949" transform="translate(-18.5 -50.212)">
    <circle id="Ellipse_6" data-name="Ellipse 6" cx="16.573" cy="16.573" r="16.573" transform="translate(101.963 122.417)" fill="#207faa"/>
    <g id="Group_9" data-name="Group 9" transform="translate(18.5 101.37)">
      <path id="Path_9" data-name="Path 9" d="M118.536,261.2c-25.1,0-47.027-2.74-63.439-7.956-10.644-3.367-19.687-7.857-26.13-12.975C22.131,234.857,18.5,228.948,18.5,223.236c0-10.961,12.958-21.69,34.71-28.689,17.8-5.744,41.011-8.947,65.29-8.947,23.852,0,46.743,3.1,64.436,8.782,10.36,3.3,19.082,7.593,25.276,12.347,6.728,5.216,10.288,10.928,10.288,16.507,0,11.39-14.489,22.912-37.843,30.076C164.139,258.4,142.067,261.2,118.536,261.2Zm0-67.679c-23.033,0-45.817,3.1-62.478,8.485-20.007,6.471-28.978,15.319-28.978,21.228,0,6.141,9.648,15.814,30.794,22.516,15.522,4.919,36.525,7.527,60.662,7.527,22.642,0,43.752-2.641,59.452-7.494,21.965-6.768,32-16.441,32-22.549,0-3.136-2.563-6.834-7.227-10.432-5.376-4.16-13.208-7.956-22.57-10.961C163.356,196.495,141.462,193.523,118.536,193.523Z" transform="translate(-18.5 -185.6)" fill="#207faa"/>
    </g>
    <g id="Group_10" data-name="Group 10" transform="translate(61.63 50.212)">
      <path id="Path_10" data-name="Path 10" d="M146.453,228.073a16.414,16.414,0,0,1-8.848-2.35c-9.475-5.91-12.776-22.927-8.782-45.534,3.268-18.548,11.258-40.336,22.516-61.377,11.06-20.649,24.331-38.806,37.438-51.088,7.659-7.191,15.418-12.46,22.417-15.237,7.626-3.026,14.229-3.026,19.049-.036,9.871,6.123,13.14,24.921,8.518,48.988-3.268,17.089-11.06,37.7-21.954,58.1-11.621,21.717-24.166,39.233-36.283,50.661-7.857,7.405-15.946,12.817-23.341,15.629A30.128,30.128,0,0,1,146.453,228.073Zm8.287-107.125,3.434,2.136c-10.664,19.937-18.554,41.333-21.591,58.707-3.665,20.827-.132,33.359,4.952,36.527a9.2,9.2,0,0,0,4.919,1.21c6.57,0,16.9-4.486,28.854-15.736,11.456-10.787,23.44-27.591,34.632-48.489,10.5-19.616,17.96-39.34,21.063-55.538,4.325-22.678.594-36.563-4.721-39.874-2.707-1.673-7.1-1.46-12.38.641-6.108,2.421-13.008,7.156-19.941,13.671-12.446,11.677-25.157,29.051-35.787,48.916Z" transform="translate(-127.159 -50.212)" fill="#207faa"/>
    </g>
    <g id="Group_11" data-name="Group 11" transform="translate(61.705 50.372)">
      <path id="Path_11" data-name="Path 11" d="M221.743,228.5c-8.98,0-20.37-5.839-32.255-16.875-13.272-12.318-26.774-30.654-38.065-51.695h0c-11.093-20.649-19.016-42.118-22.351-60.524-1.948-10.752-2.311-20.614-1.056-28.553,1.387-8.651,4.655-14.811,9.508-17.837,9.838-6.159,26.576.178,43.612,16.52C193.219,81.1,205.9,98.689,216.824,119.054c11.654,21.717,19.478,42.189,22.582,59.207,2.014,11.037,2.344,21.29.924,29.621-1.519,8.865-4.952,15.167-9.9,18.264A16,16,0,0,1,221.743,228.5ZM158.29,155.653c10.7,19.937,23.968,37.988,36.382,49.487,14.889,13.814,26.708,16.8,31.826,13.6,5.315-3.311,9.211-16.876,5.183-38.807-2.971-16.092-10.465-35.674-21.69-56.572-10.532-19.617-22.648-36.457-34.1-47.422-16.045-15.38-29.052-18.834-34.368-15.523-2.707,1.673-4.721,5.91-5.678,11.891-1.089,6.907-.759,15.736,1.023,25.456,3.169,17.481,10.763,38.023,21.426,57.889Z" transform="translate(-127.284 -50.696)" fill="#207faa"/>
    </g>
  </g>
</svg>
